/* XPM */
static char * door4_xpm[] = {
"128 128 12 1",
" 	c #1DF707",
".	c #D09664",
"+	c #9E7149",
"@	c #7C5B41",
"#	c #AC843F",
"$	c #8B6945",
"%	c #D0B058",
"&	c #DCC36E",
"*	c #625143",
"=	c #BBACA4",
"-	c #9B827D",
";	c #E7D8C7",
"                                                                                                                                ",
"                                                                                                                                ",
"                                                                                                                                ",
"                                                                                                                                ",
"                                                                                                                                ",
"                                                                                                                                ",
"                                                                                                                                ",
"                                                                                                                                ",
"                                                                                                                                ",
"                                                                                                                                ",
"                                                                                                                                ",
"                                                                                                                                ",
"                                                                                                                                ",
"                                                                                                                                ",
"                                                                                                                                ",
"                                                                                                                                ",
"                                                                                                                                ",
"                                                                                                                                ",
"                                                                                                                                ",
"                                                                                                                                ",
"                                                                                                                                ",
"                                                                                                                                ",
"                                                                                                                                ",
"                                                                                                                                ",
"                                                                                                                                ",
"                                                                                                                                ",
"                                                                                                                                ",
"                                                                                                                                ",
"                                                                                                                                ",
"                                                                                                                                ",
"                                                                                                                                ",
"                                                                                                                                ",
"                                                                                                                                ",
"                                                                                                                                ",
"                                                                                                                                ",
"                                                                                                                                ",
"                                                                                                                                ",
"                                                                                                                                ",
"                                                                                                                                ",
"                                                                                                                                ",
"                                                                                                                                ",
"                                                                                                                                ",
"                                                      ..............+++                                                         ",
"                                                    .................++++                                                       ",
"                                                 ........................+++                                                    ",
"                                              .............................++++                                                 ",
"                                            ......................++...........++                                               ",
"                                          ............++++.+........+...........+++                                             ",
"                                         .........++++...............+++...++....+++                                            ",
"                                        .......++++................+..++++....++...++                                           ",
"                                       ......++............++++++++....++@++....+++..+                                          ",
"                                      ......+........++++++...++++++++...+@@++....+++.+                                         ",
"                                     .............+++++++++++++++++++++++..+@+++....++++                                        ",
"                                    ...........++++++++@@@@++++++++++@+++++.@@+@++...+@++                                       ",
"                                    ........+++++++@@+++++++++++++++++@@@++++@@+@@++..+@+                                       ",
"                                    ......+++++++@@++++++++@@@@@@@@++++++@@+++@@++@@+..@@                                       ",
"                                    ....+++++++@@++++++@@@@#$#%&%#$@@@+++++@@+.@@@@@+.++@                                       ",
"                                    ...++++++@@+++++@@@%&%##$#%&%#$#&#@@@++++@+.++++.+++@                                       ",
"                                    ..++++++@++++@@@#$#%&%##$#%&%#$#%#$**@@@++@++...+++@@                                       ",
"                                    .+++++@@+++@@#&%#$#%&%##$#%%%#$#%#$*****@@+@++++++@@@                                       ",
"                                    +++++@@++@@$$&%##$#%&%##$#%&%#$#%#$*******@@@+++@@@@@                                       ",
"                                    @+++@@++@$%$#%%##$#%&%##$#%%%#$#%#$*********@@@@@@@@.                                       ",
"                                    .@@@@@@@$#%$#%%##$#%&%##$#%%#%$#%#$**********+.......                                       ",
"                                    .......+#%#$#%%##$#%&%##$$##&#$#%#$**********++.+...+                                       ",
"                                    +..+..+@###$#%%##$#%%%##$%&&%#$#%#$**********@++@++++                                       ",
"                                    +++@+++@&##$#%%##$#%%%##$#%%%#$#%#$**********@++@++++                                       ",
"                                    +++@+++@%##$#%%##$#%&%##$#%%%#$#%#$**********@++@++++                                       ",
"                                    +++@+++@%##$#%%##$#%%%##$#%%%#$#%#$**********@++@++++                                       ",
"                                    +++@+++@%##$#%%##$#%%%##$#%%%#$#%&$**********@+++++++                                       ",
"                                    +++@+++@%##$#%%##$#%%%##$#%%%#$#&%$**********@+++++++                                       ",
"                                    @++@+++@%##$#%%##$#%%%##$#%%%#$=%$$**********@++@++++                                       ",
"                                    @++@+++@%##$#%%##$#%%%##$#%%%$=-##$**********@++@++++                                       ",
"                                    @++@+++@%##$#%%##$#%%%##$#%%%=-#$#$**********@++@++++                                       ",
"                                    @++@+++@%##$#%%##$#%%%##$#%%&==;=#$**********@++@++++                                       ",
"                                    @++@++++@##$#%%##$#%%%##$#&&%-;-=;$**********@++@++++                                       ",
"                                    @++@++.+@##$#%%##$#%%%##$&%%#$=;-=;**********@++@+++@                                       ",
"                                    @++@+.++@##$#%%##$#%%%#&&%##$#-;*-;**********@++@+++@                                       ",
"                                    @+++++++@##$#%%##$#%%%&%%#$$##*=*-=**********@++@+++@                                       ",
"                                    @++@++++@##$#%%##$#%&&%##$##%#$;-;=*********@+@+@+++@                                       ",
"                                    @++@++++@##$#%%##$#&%%#$$$%%%#$=;=$*********@+.@@@++@                                       ",
"                                     ++@++++@##$#%%##&&%##$$*#%%%#$-=#$*********@++..+++@                                       ",
"                                     ++@++++@##$#%%#&%%#$$$$*#%%%#$$##$*********@+++++++@                                       ",
"                                     ++@++++@##$#%&&%##$####$#%%%#$###$*********@+++++++@                                       ",
"                                     ++@++++@##$#&%%#$$#%%##$#%%%#$#%#$*********@+++++++@                                       ",
"                                     +++++++@##$&%##$*$#%%##$#%%%#$#%#$*********@++@++++@                                       ",
"                                     +++++++@##&%#$$$*$#%%##$#%%%#$#%#$*********@++@++++                                        ",
"                                     +++++++@&&%#$#$$$##%%##$#%%%#$#%#$*********@++@++++                                        ",
"                                     +++++++@%%#$#%##$##%%##$#%%%#$#%#$*********@+@+++++                                        ",
"                                     +++++++@##$#%%##$##%%##$#%%%#$#%#$*********@+@+++++                                        ",
"                                     @++++++@$$*#%%##$##%%##$#%%%#$###$*********@+@+++@+                                        ",
"                                     @++++++@$$*#%%##$##%%##$#%%%#$###$*********@+++++@+                                        ",
"                                     @++++++@#$$#%%##$##%%##$#%%%#$###$*********@+++++@+                                        ",
"                                     @++++++@##$#%%##$##%%##$#%%%#$###$*********@+@+++@+                                        ",
"                                     @++++++@@#$#%%##$##%%##$#%%%#$#&#$*********@+@+++@+                                        ",
"                                     @+++++@@@#$#%%##$##%%##$#%%%#$&%$$*********@+++++@+                                        ",
"                                     @++++@@+@#$#%%#$$##%%##$#%%%#&%#$$*********@@++++@+                                        ",
"                                     @+++@+++@#$#%%#$$##%%##$#%%%&%#$#$*********@@++++@+                                        ",
"                                     @++++.++@#$#%%$#$##%%##$#%%&%#$##$*********@@++++@+                                        ",
"                                     @+++.+++@#$#%###$##%%##$#&&%#$$##**********@@++++@+                                        ",
"                                      +++++@+@#$$#&##$##%%##$&%%#$*##$**********@@++++@+                                        ",
"                                      +++++@+@#$#&%##$##%%#&&%##$$*##$**********@@++++@+                                        ",
"                                      +++++@+@#$#%%##$##%%&%%#$$##$##$**********@@++++@+                                        ",
"                                      +++++@+@#$#%%##$#%&&%##$##%#$##$**********@+++++@+                                        ",
"                                      +++++@+@#$#%%##$#&%%#$$$%%%#$##$**********@+++++++                                        ",
"                                      +++++@+@#$#%%##&&%##$$*#%%%#$##$**********@++++++@                                        ",
"                                      +++++@+@#$#%%#&%%#$$$$*#%%%#$##$**********@++++++@                                        ",
"                                      +++++@+@#$#%&&%##$####$#%%%#$#$***********@++++++@                                        ",
"                                      @++++@+@#$#&%%#$$#%%##$#%%%#$#$**********@.++++++@                                        ",
"                                      @++++@+@#$&%##$*$%%%##$#%%%#$$***********@+.+++++@                                        ",
"                                      @++++@+@#&%#$$$*$%%%##$##%##$************@+++++++@                                        ",
"                                      @++@++@@&%#$#$$$#%%%##$##%#$*************@+++++@+@                                        ",
"                                      @++@++@@%#$#%##$#%%%##$####**************@+++++@+@                                        ",
"                                      @++@++@+@$#%%##$#%%%##$#$#***************@+++++@+@                                        ",
"                                      @++@++@+@*%%%##$##%%#$$$*****************@++++++@                                         ",
"                                      @++@++@+@*%%%##$##%%#$*******************@++++++@                                         ",
"                                      @+++@+@+@$%%%##$###%#********************@+++@++@                                         ",
"                                      @+++@+@+@$%%%##$####*********************@+++@++@                                         ",
"                                      @+++@+@+@$%%%##$$#*****@@@@@@@@@*********@+++@++@                                         ",
"                                       @++@++@@$#%%#$*****@@@@@@@@@@@@@@*******@+++@++@                                         ",
"                                       @+++++@@$#%%#$***@@@@@@@@@*****@@@@*****@+++@+@@                                         ",
"                                       @++@++@@$###$***@@@@@@@@@@@@@@@@@@@@@***@+++@+@@                                         ",
"                                       @++@+@@@*##$***@@@@@@@*****@@@@@*****@@*@+++@+@@                                         ",
"                                       @++@+@@@*#$**@@@@@@@@@@@@@@@@@@@@@@@@***@+@++@@@                                         ",
"                                       @+@@+@@@*$********@@@@@@@@@@@@@@@*******@+@++@@@                                         ",
"                                       @@@@+@@@****@@@@@@@@@@@@@@@@@@@@@@@@****@@@+@@@*                                         ",
"                                       @@@*@@@**@@@@@@@@@@@@@******@@@@@@@@@@@*@@@+@*@*                                         ",
"                                       *@@*@@************************************+@@***                                         ",
"                                       ******************************************@@****                                         "};
