/* XPM */
static char * door7_xpm[] = {
"128 128 11 1",
" 	c #1DF707",
".	c #D09664",
"+	c #9E7149",
"@	c #7C5B41",
"#	c #625143",
"$	c #8B6945",
"%	c #AC843F",
"&	c #DCC36E",
"*	c #D0B058",
"=	c #9B827D",
"-	c #BBACA4",
"                                                                                                                                ",
"                                                                                                                                ",
"                                                                                                                                ",
"                                                                                                                                ",
"                                                                                                                                ",
"                                                                                                                                ",
"                                                                                                                                ",
"                                                                                                                                ",
"                                                                                                                                ",
"                                                                                                                                ",
"                                                                                                                                ",
"                                                                                                                                ",
"                                                                                                                                ",
"                                                                                                                                ",
"                                                                                                                                ",
"                                                                                                                                ",
"                                                                                                                                ",
"                                                                                                                                ",
"                                                                                                                                ",
"                                                                                                                                ",
"                                                                                                                                ",
"                                                                                                                                ",
"                                                                                                                                ",
"                                                                                                                                ",
"                                                                                                                                ",
"                                                                                                                                ",
"                                                                                                                                ",
"                                                                                                                                ",
"                                                                                                                                ",
"                                                                                                                                ",
"                                                                                                                                ",
"                                                                                                                                ",
"                                                                                                                                ",
"                                                                                                                                ",
"                                                                                                                                ",
"                                                                                                                                ",
"                                                                                                                                ",
"                                                                                                                                ",
"                                                                                                                                ",
"                                                                                                                                ",
"                                                                                                                                ",
"                                                                                                                                ",
"                                                      ..............+++                                                         ",
"                                                    .................++++                                                       ",
"                                                 ........................+++                                                    ",
"                                              .............................++++                                                 ",
"                                            ......................++...........++                                               ",
"                                          ............++++.+........+...........+++                                             ",
"                                         .........++++...............+++...++....+++                                            ",
"                                        .......++++................+..++++....++...++                                           ",
"                                       ......++............++++++++....++@++....+++..+                                          ",
"                                      ......+........++++++...++++++++...+@@++....+++.+                                         ",
"                                     .............+++++++++++++++++++++++..+@+++....++++                                        ",
"                                    ...........++++++++@@@@++++++++++@+++++.@@+@++...+@++                                       ",
"                                    ........+++++++@@+++++++++++++++++@@@++++@@+@@++..+@+                                       ",
"                                    ......+++++++@@++++++++@@@@@@@@++++++@@+++@@++@@+..@@                                       ",
"                                    ....+++++++@@++++++@@@@########@@@+++++@@+.@@@@@+.++@                                       ",
"                                    ...++++++@@+++++@@@###############@@@++++@+.++++.+++@                                       ",
"                                    ..++++++@++++@@@#####################@@@++@++...+++@@                                       ",
"                                    .+++++@@+++@@###########################@@+@++++++@@@                                       ",
"                                    +++++@@++@@###############################@@@+++@@@@@                                       ",
"                                    @+++@@++@$##################################@@@@@@@@.                                       ",
"                                    .@@@@@@@$$###################################+.......                                       ",
"                                    .......+%%###################################++.+...+                                       ",
"                                    +..+..+@%%###################################@++@++++                                       ",
"                                    +++@+++@&&###################################@++@++++                                       ",
"                                    +++@+++@**###################################@++@++++                                       ",
"                                    +++@+++@**###################################@++@++++                                       ",
"                                    +++@+++@**###################################@+++++++                                       ",
"                                    +++@+++@**###################################@+++++++                                       ",
"                                    @++@+++@**###################################@++@++++                                       ",
"                                    @++@+++@**###################################@++@++++                                       ",
"                                    @++@+++@**###################################@++@++++                                       ",
"                                    @++@+++@**=##################################@++@++++                                       ",
"                                    @++@++++@*=##################################@++@++++                                       ",
"                                    @++@++.+@*-=#################################@++@+++@                                       ",
"                                    @++@+.++@*-=#################################@++@+++@                                       ",
"                                    @+++++++@*--#################################@++@+++@                                       ",
"                                    @++@++++@*=-################################@+@+@+++@                                       ",
"                                    @++@++++@*=-################################@+.@@@++@                                       ",
"                                     ++@++++@*==################################@++..+++@                                       ",
"                                     ++@++++@*##################################@+++++++@                                       ",
"                                     ++@++++@*##################################@+++++++@                                       ",
"                                     ++@++++@*##################################@+++++++@                                       ",
"                                     +++++++@*##################################@++@++++@                                       ",
"                                     +++++++@*##################################@++@++++                                        ",
"                                     +++++++@*##################################@++@++++                                        ",
"                                     +++++++@&##################################@+@+++++                                        ",
"                                     +++++++@*##################################@+@+++++                                        ",
"                                     @++++++@%##################################@+@+++@+                                        ",
"                                     @++++++@$##################################@+++++@+                                        ",
"                                     @++++++@%##################################@+++++@+                                        ",
"                                     @++++++@*##################################@+@+++@+                                        ",
"                                     @++++++@@##################################@+@+++@+                                        ",
"                                     @+++++@@@##################################@+++++@+                                        ",
"                                     @++++@@+@##################################@@++++@+                                        ",
"                                     @+++@+++@##################################@@++++@+                                        ",
"                                     @++++.++@##################################@@++++@+                                        ",
"                                     @+++.+++@##################################@@++++@+                                        ",
"                                      +++++@+@##################################@@++++@+                                        ",
"                                      +++++@+@##################################@@++++@+                                        ",
"                                      +++++@+@##################################@@++++@+                                        ",
"                                      +++++@+@##################################@+++++@+                                        ",
"                                      +++++@+@##################################@+++++++                                        ",
"                                      +++++@+@##################################@++++++@                                        ",
"                                      +++++@+@##################################@++++++@                                        ",
"                                      +++++@+@##################################@++++++@                                        ",
"                                      @++++@+@#################################@.++++++@                                        ",
"                                      @++++@+@#################################@+.+++++@                                        ",
"                                      @++++@+@#################################@+++++++@                                        ",
"                                      @++@++@@#################################@+++++@+@                                        ",
"                                      @++@++@@#################################@+++++@+@                                        ",
"                                      @++@++@+@################################@+++++@+@                                        ",
"                                      @++@++@+@################################@++++++@                                         ",
"                                      @++@++@+@################################@++++++@                                         ",
"                                      @+++@+@+@################################@+++@++@                                         ",
"                                      @+++@+@+@################################@+++@++@                                         ",
"                                      @+++@+@+@##############@@@@@@@@@#########@+++@++@                                         ",
"                                       @++@++@@########@@@@@@@@@@@@@@@@@#######@+++@++@                                         ",
"                                       @+++++@@#####@@@@@@@@@@@@@#####@@@@#####@+++@+@@                                         ",
"                                       @++@++@@###@@@@@@@@@@@@@@@@@@@@@@@@@@###@+++@+@@                                         ",
"                                       @++@+@@@#######@@@@@@@#####@@@@@#####@@#@+++@+@@                                         ",
"                                       @++@+@@@#@@@@@@@@@@@@@@@@@@@@@@@@@@@@###@+@++@@@                                         ",
"                                       @+@@+@@@##########@@@@@@@@@@@@@@@#######@+@++@@@                                         ",
"                                       @@@@+@@@####@@@@@@@@@@@@@@@@@@@@@@@@####@@@+@@@#                                         ",
"                                       @@@#@@@##@@@@@@@@@@@@@######@@@@@@@@@@@#@@@+@#@#                                         ",
"                                       #@@#@@####################################+@@###                                         ",
"                                       ##########################################@@####                                         "};
