/* XPM */
static char * fire_sheet_xpm[] = {
"192 32 5 1",
" 	c #1DF707",
".	c #AF4828",
"+	c #D1732E",
"@	c #ECB51F",
"#	c #FFED56",
"                                                                                                                                                                                                ",
"                                                                                                                                                                                                ",
"                                                                                                                                                                                                ",
"                                                                                                                                                                                                ",
"                                                                                                                                                                                                ",
"                                                                                                                                                                                                ",
"                                                                                                                                                                                                ",
"                                                                                                                                                                                                ",
"                                                                                                                                                                                                ",
"              .                                                                                                                                                                                 ",
"                                  .                          +                                                                                                                                  ",
"                                     +                                                                     .                        +                                                 .         ",
"         .. .                        .                                                                                                                                                .         ",
"         . ++                                                                     .                          +                                            +   +                                 ",
"           .+                                             ..                      .  +                      @+                        +                       +.                .. ++           ",
"           .                                             ...                        ++                       .                   +    ++                       .                ..@@++          ",
"                                   .                      .                         +.                                           +     +                ..  +                     @@++          ",
"                                  ...   +                   ++                      @                    +     ++                ..    .               ... @@@                    +..           ",
"                 +               ....                      +++                  ++  @                   ++     ++               .++                    ...@@@@+                    .            ",
"         ...     +              +@..++                   + +#++                 ++  .  ++               ++     +               ..+++.                   . @@@@+                    .            ",
"        .....                  @@@.@@@+                 ++  #++.                ++...  ++                + ++  .               ..+++++                    +@@.                     ..   ++      ",
"       +@@+.+++                @@+.@@#+                 ++  ++..                .+... .++               ++@@@+ .               ..+##@++                    ...                  ++ ..   ++      ",
"       +@@@.+@@+               +++.+##+.               .++..+..@@               ++.+@+.+.               +@@@@++..               .+####+.                   ++. +++             ++++..   .+      ",
"       .@@@+@@@+.               +##+##..+              ..+.+@@.@@+             +++@@@@+..               ..@@+++..                .####..++             +++.+++.+++             ++@@@++  .       ",
"       .+###@##..               +##@#+@@@+             .++.@@@@+++             +++@@@+++..              ..+###+.@+              ..+##+.@@+            +++++++++++               .@@@++...       ",
"       .+######.@+.            +++@@@+@@@+            +@@+.@@@@++.             ++.+++++++.              .++####+@@.           ++.++@@++@@+            ++###++@@++               .+##@++.+++     ",
"      +++@##@#@.@@+           +++@@@@++@@+            +@@@+@@+++..              ...+###++.+             .++####+@@+          +@@+++@@+++++            .####@@@@@+.              .#####+.++++    ",
"      ++++@@@@@++@+           ++###@@+++++            +@@++###++..              ..++###@+++           ++.+@####@+@+          +@@##@@##+++             .###@##@@@+.             ++#####@+@@++    ",
"      ++###@@@@++++           ++#####@##++             ..+####@++.             ..++@####+++           ++++@@##@@+++          .@####@###++              +#@@##@@++++           .+++#####+@@+.    ",
"      ++#####@@##++           .+@#######..             ..@#####+++            ++.++#####+++           +++##@@###++.          ..########@+.             +@@#####@@++           +++@#####@@..     ",
"      ++#########..           .+@#######..             ++######@@+.           ++@@#####@++.           .+@#######+..           .+##@#####+.            .++######@@+.           +++######@...     ",
"      .+@#######@..            ++######@+             .+#######@@++          .+@@@#####@++.            .#######+++             .+@######++           ..+@#######++             .@#######+.      "};
