/* XPM */
static char * lava_xpm[] = {
"128 128 9 1",
" 	c #741C00",
".	c #621800",
"+	c #F22F00",
"@	c #FDC846",
"#	c #FA9A00",
"$	c #671500",
"%	c #980F00",
"*	c #6E1400",
"=	c #691600",
"    ..++@@##++++$$%%%%%%        ..++##@@##++##++##$$%%%%%%%%%%     ..++@@##++++$$%%%%%%        ..++##@@##++##++##$$%%%%%%%%%%   ",
"    ..++@@@#++++$$%%%%%%%       .++##@@@#+++##++##$$%%%%%%%%%%     ..++@@@#++++$$%%%%%%%       .++##@@@#+++##++##$$%%%%%%%%%%   ",
"%%...++#@@@@+++$$%%%%%%%%     ...++##@@@+++#######$$$$$$%%%%%%%%%...++#@@@@+++$$%%%%%%%%     ...++##@@@+++#######$$$$$$%%%%%%%%%",
"%%..++##@@@@@+$$%%%%%%%%%%   ...++##@@@@++########++$$$$$$%%%%%%%..++##@@@@@+$$%%%%%%%%%%   ...++##@@@@++########++$$$$$$%%%%%%%",
"$$+++##+@@@@@++$$$%%%%%%%%$$+++++##@@@@@###########+++++$$$$$$$$$+++##+@@@@@++$$$%%%%%%%%$$+++++##@@@@@###########+++++$$$$$$$$$",
"$$++##++@@@@@@++$$$$%%%%$$$$++++##@@@@@###%%++##@@##+++++$$$$$$$$++##++@@@@@@++$$$$%%%%$$$$++++##@@@@@###%%++##@@##+++++$$$$$$$$",
"+++#####@@@#@@@@##$$$$$$$$########@@@@@##%%%++++@@@#########++++++#####@@@#@@@@##$$$$$$$$########@@@@@##%%%++++@@@#########+++++",
"++######@@##@@@@#+#+$$$$$#+#######@@@@##%%%% +++@@@#########+++++######@@##@@@@#+#+$$$$$#+#######@@@@##%%%% +++@@@#########+++++",
"++++++@#####%%%%##++####++##+++#####++%%%%%%  ++@@@@###+#####++++++++@#####%%%%##++####++##+++#####++%%%%%%  ++@@@@###+#####++++",
"++++++@@###+%%%%%#+######+#++++++##++%%%%%%%  ++@@@@#++++####++++++++@@###+%%%%%#+######+#++++++##++%%%%%%%  ++@@@@#++++####++++",
"+++%++@@@@++*%%%%%      %%+++++###+++%%%%%%%  ++@@@@++++++%%%%++++%++@@@@++*%%%%%      %%+++++###+++%%%%%%%  ++@@@@++++++%%%%+++",
"++%%++@@@@@++*%%%%%      %**++###+++%%%%%%%%  ++##@@+++++%%%%%+++%%++@@@@@++*%%%%%      %**++###+++%%%%%%%%  ++##@@+++++%%%%%+++",
"%%%%++##+@@@+**%%%%         ==##++++%%%%%%%%  +++###+++++%%%%%%%%%%++##+@@@+**%%%%         ==##++++%%%%%%%%  +++###+++++%%%%%%%+",
"%%%%++##++@@@+**%%%%        ==##++  %%%%%%%%  +++###+++%%%%%%%%%%%%++##++@@@+**%%%%        ==##++  %%%%%%%%  +++###+++%%%%%%%%%%",
"%%%%++##%++@@@+**%%%%       ==##    %%%%%%%%   +++####%%%%%%%%%%%%%++##%++@@@+**%%%%       ==##    %%%%%%%%   +++####%%%%%%%%%%%",
"%%%%++##%%%+@@++**%%%%%     ==##    %%%%%%%%%    +@@##%%%%%%%%%%%%%++##%%%+@@++**%%%%%     ==##    %%%%%%%%%    +@@##%%%%%%%%%%%",
"%%%%++   %%%@@++==%%%%%     ==##    %%%%%%%%%     @@@@%%%%%%%%%%%%%++   %%%@@++==%%%%%     ==##    %%%%%%%%%     @@@@%%%%%%%%%%%",
"%%%%++   %%%@@@++==%%%%%   ===#     %%%%%%%%%%%   @@@@%%%%%%%%%%%%%++   %%%@@@++==%%%%%   ===#     %%%%%%%%%%%   @@@@%%%%%%%%%%%",
"%%%+++    %%#@@++==%%%%%=====+      %%%%%%%%%%%%++@@@@%%%%%% %%%%%+++    %%#@@++==%%%%%=====+      %%%%%%%%%%%%++@@@@%%%%%% %%%%",
"%%%+++    %%##@@@++=%%%%====++       %%%%%%%%%%%+@@@@@%%%%%   %%%%+++    %%##@@@++=%%%%====++       %%%%%%%%%%%+@@@@@%%%%%   %%%",
"%%+++      %++@@@@++****++@@++*      %%%%%%%%%%*@@@@@+        %%%+++      %++@@@@++****++@@++*      %%%%%%%%%%*@@@@@+        %%%",
"%%+++      %++@@@@@++**++@@@@+**       %%%%%%***@@@+++        %%%+++      %++@@@@@++**++@@@@+**       %%%%%%***@@@+++        %%%",
"%%++         +%%+@@@+++++@@@@@**%      %%%%%%**#@@+++%        %%%++         +%%+@@@+++++@@@@@**%      %%%%%%**#@@+++%        %%%",
"%%++         +%%%+@@+++@@@@@@@**%%%      %%%**##@++%%%        %%%++         +%%%+@@+++@@@@@@@**%%%      %%%**##@++%%%        %%%",
"++++          %%%+++##@@@@@@@+**%%%         **++++%%%%%       %++++          %%%+++##@@@@@@@+**%%%         **++++%%%%%       %%%",
"++++           %%%%+##@@@@@+++**%%%%%       **++++%%%%%%      %++++           %%%%+##@@@@@+++**%%%%%       **++++%%%%%%      %%%",
"+++++          %%%%+++@@@+++++**%%%%%       ==++##%%%%%%%%   +++++++          %%%%+++@@@+++++**%%%%%       ==++##%%%%%%%%   ++++",
"+++++            %%%++@@++++++*%%%%%%%      ==++##++%%%%%%%  +++++++            %%%++@@++++++*%%%%%%%      ==++##++%%%%%%%  ++++",
"+++#++           %%%**##++++==%%%%%%%%      ==++@@+++%%%%%%+++++++#++           %%%**##++++==%%%%%%%%      ==++@@+++%%%%%%++++++",
"++##++             %**#+#+++==%%%%%%%%%    ==+++@@@+++%%%%%++++++##++             %**#+#+++==%%%%%%%%%    ==+++@@@+++%%%%%++++++",
"####++*             **+###++++*%%%%%%%%    ==+++@@@##++%%%++#++####++*             **+###++++*%%%%%%%%    ==+++@@@##++%%%++#++++",
"####++**            **++##+++++**%%%%%%%  =+++++@@@##++%%%++##+####++**            **++##+++++**%%%%%%%  =+++++@@@##++%%%++##+++",
"@@@@++**            **++@@@@+++**%%%%%%%**++++##@@##++++++++@@@@@@@++**            **++@@@@+++**%%%%%%%**++++##@@##++++++++@@@@@",
"@@@@++**             **++@@@++++***%%%%**+++++##@@++++++++++@@@@@@@++**             **++@@@++++***%%%%**+++++##@@++++++++++@@@@@",
"@@@@++**%%           **+++++##++#**%%%%**+++++++@@+++%%%++++#@@@@@@++**%%           **+++++##++#**%%%%**+++++++@@+++%%%++++#@@@@",
"@@@@++**%%%           ***+++##++##**%%*+++++++++@@+++%%%+++++@@@@@@++**%%%           ***+++##++##**%%*+++++++++@@+++%%%+++++@@@@",
"@@@@++**%%%%          %**+++@@@@@@+****++++   ==@@++%%%%%++++++@@@@++**%%%%          %**+++@@@@@@+****++++   ==@@++%%%%%+++++++@",
"@@@@++**%%%%%%         %**++@@@@@@++**++++   ===@@%%%%%%%%+++++@@@@++**%%%%%%         %**++@@@@@@++**++++   ===@@%%%%%%%%+++++++",
"####++**%%%%%%%         **++#@@@@@+++++++%%%====@@%%%%%%%%%++++####++**%%%%%%%         **++#@@@@@+++++++%%%====@@%%%%%%%%%++++++",
"####++**%%%%%%%%%       ***++#@@@+++++++%%%%====@@%%%%%%%%%++++####++**%%%%%%%%%       ***++#@@@+++++++%%%%====@@%%%%%%%%%++++++",
"++##++**%%%%%%%%%       %**+++@@@+##+++*%%%%**++@@ %%%%%%%%% ++++##++**%%%%%%%%%       %**+++@@@+##+++*%%%%**++@@ %%%%%%%%% ++++",
"+++#++**%%%%%%%%%%%      %**++@@+###++***%%***++@@ %%%%%%%%%   +++#++**%%%%%%%%%%%      %**++@@+###++***%%***++@@ %%%%%%%%%   ++",
"+++++++..%%%%%%%%%%       ==++@@###+++********++##++%%%%%%%%%  +++++++..%%%%%%%%%%       ==++@@###+++********++##++%%%%%%%%%   +",
"+++++++..%%%%%%%%%%%%    ===+@@###++++********+###++%%%%%%%%%%%+++++++..%%%%%%%%%%%%    ===+@@###++++********+###++%%%%%%%%%%%  ",
"++###+++..%%%%%%%%%%%    ==#@@@##++++############+   %%%%%%%%%%++###+++..%%%%%%%%%%%    ==#@@@##++++############+   %%%%%%%%%%%%",
"+####++++...%%%%%%%%%%  =##@@@#+++++############+     %%%%%%%%%+####++++...%%%%%%%%%%  =##@@@#+++++############+     %%%%%%%%%%%",
"###@@#++++....$$$%%%%%**##@@@##++%%%%%%###++++++       %%%%%%%%###@@#++++....$$$%%%%%**##@@@##++%%%%%%###++++++       %%%%%%%%%%",
"##@@@##+++....$$$$$%%%**#@@@#+++%%%%%%%%##++++++        %%%%%%%##@@@##+++....$$$$$%%%**#@@@#+++%%%%%%%%##++++++        %%%%%%%%%",
"++@@@@##++##@@+++$$$$$++@@@@+++ %%%%%%%%$##+++++++%%     %%%%%%++@@@@##++##@@+++$$$$$++@@@@+++ %%%%%%%%$##+++++++%%     %%%%%%%%",
"++@@@@@##+##@@++++$$$$+++@@++    %%%%%%%%$$##+++++%%%     %%%%%++@@@@@##+##@@++++$$$$+++@@++    %%%%%%%%$$##+++++%%%     %%%%%%%",
"+++#@@@@###@@@##########+++++     %%%%%%%%$####+++ %%%     %%%%+++#@@@@###@@@##########+++++     %%%%%%%%$####+++ %%%     %%%%%%",
"++++@@@@@#@@@###########++++       %%%%%%$$$####++  %%%      %%++++@@@@@#@@@###########++++       %%%%%%$$$####++  %%%      %%%%",
"+++++@@@@@@@@##+++++++%%%%%%%%      %%%%$$++++##++   %%%       +++++@@@@@@@@##+++++++%%%%%%%%      %%%%$$++++##++   %%%        %",
"++++++@@@@@@##++++++++%%%%%%%%        %%+++++###++    %%%      ++++++@@@@@@##++++++++%%%%%%%%        %%+++++###++    %%%        ",
"..+++++#@@@+%%%%%%    %%%%%%%%%       ..++++####$$%    %%%     ..+++++#@@@+%%%%%%    %%%%%%%%%       ..++++####$$%    %%%       ",
"..++++++@++%%%%%%%    %%%%%%%%%%      ..++++####$$$%    %%%    ..++++++@++%%%%%%%    %%%%%%%%%%      ..++++####$$$%    %%%      ",
"...+@@@++++%%%%%%%     %%%%%%%%%%%%%  ..#+++##+++$$$     %%%   ...+@@@++++%%%%%%%     %%%%%%%%%%%%%  ..#+++##+++$$$     %%%     ",
"....@@@@++%%%%%%%      %%%%%%%%%%%%%%%..######++++$$      %%%  ....@@@@++%%%%%%%      %%%%%%%%%%%%%%%..######++++$$      %%%    ",
"  ..@@@@$$$%%%%%        %%%%%%%%%%%%%%.#####@@#+++$$%      %%%%  ..@@@@$$$%%%%%        %%%%%%%%%%%%%%.#####@@#+++$$%      %%%%%%",
"  ..@@@@$$$%%%%%%        %%%%%%%%%%%%%######@@##++$$%%%     %%%  ..@@@@$$$%%%%%%        %%%%%%%%%%%%%######@@##++$$%%%     %%%%%",
"%%%.++@@++$$%%%%%%        %%%%%%%%%%$$##++##@@##++$$%%%        %%%.++@@++$$%%%%%%        %%%%%%%%%%$$##++##@@##++$$%%%         %",
"%%%%++@@+++$$$%%%%         %%%%%%%%$$$######@@##+++$$%%%%      %%%%++@@+++$$$%%%%         %%%%%%%%$$$######@@##+++$$%%%%        ",
"  %%$$@@##++$$$$%%          %%%%%%$$++######@@##+++$$%%%%%%      %%$$@@##++$$$$%%          %%%%%%$$++######@@##+++$$%%%%%%      ",
"  %%$$@@##++$$$$%%          %%%%%%$$++######@@##++++$$%%%%%%     %%$$@@##++$$$$%%          %%%%%%$$++######@@##++++$$%%%%%%     ",
"    ..++@@##++++$$%%%%%%        ..++##@@##++##++##$$%%%%%%%%%%      ..++@@##++++$$%%%%%%        ..++##@@##++##++##$$%%%%%%%%%%  ",
"    ..++@@@#++++$$%%%%%%%       .++##@@@#+++##++##$$%%%%%%%%%%      ..++@@@#++++$$%%%%%%%       .++##@@@#+++##++##$$%%%%%%%%%%  ",
"%%...++#@@@@+++$$%%%%%%%%     ...++##@@@+++#######$$$$$$%%%%%%%%%%...++#@@@@+++$$%%%%%%%%     ...++##@@@+++#######$$$$$$%%%%%%%%",
"%%..++##@@@@@+$$%%%%%%%%%%   ...++##@@@@++########++$$$$$$%%%%%%%%..++##@@@@@+$$%%%%%%%%%%   ...++##@@@@++########++$$$$$$%%%%%%",
"$$+++##+@@@@@++$$$%%%%%%%%$$+++++##@@@@@###########+++++$$$$$$$$$$+++##+@@@@@++$$$%%%%%%%%$$+++++##@@@@@###########+++++$$$$$$$$",
"$$++##++@@@@@@++$$$$%%%%$$$$++++##@@@@@###%%++##@@##+++++$$$$$$$$$++##++@@@@@@++$$$$%%%%$$$$++++##@@@@@###%%++##@@##+++++$$$$$$$",
"+++#####@@@#@@@@##$$$$$$$$########@@@@@##%%%++++@@@#########+++++++#####@@@#@@@@##$$$$$$$$########@@@@@##%%%++++@@@#########++++",
"++######@@##@@@@#+#+$$$$$#+#######@@@@##%%%% +++@@@#########++++++######@@##@@@@#+#+$$$$$#+#######@@@@##%%%% +++@@@#########++++",
"++++++@#####%%%%##++####++##+++#####++%%%%%%  ++@@@@###+#####+++++++++@#####%%%%##++####++##+++#####++%%%%%%  ++@@@@###+#####+++",
"++++++@@###+%%%%%#+######+#++++++##++%%%%%%%  ++@@@@#++++####+++++++++@@###+%%%%%#+######+#++++++##++%%%%%%%  ++@@@@#++++####+++",
"+++%++@@@@++*%%%%%      %%+++++###+++%%%%%%%  ++@@@@++++++%%%%+++++%++@@@@++*%%%%%      %%+++++###+++%%%%%%%  ++@@@@++++++%%%%++",
"++%%++@@@@@++*%%%%%      %**++###+++%%%%%%%%  ++##@@+++++%%%%%++++%%++@@@@@++*%%%%%      %**++###+++%%%%%%%%  ++##@@+++++%%%%%++",
"%%%%++##+@@@+**%%%%         ==##++++%%%%%%%%  +++###+++++%%%%%%%%%%%++##+@@@+**%%%%         ==##++++%%%%%%%%  +++###+++++%%%%%%%",
"%%%%++##++@@@+**%%%%        ==##++  %%%%%%%%  +++###+++%%%%%%%%%%%%%++##++@@@+**%%%%        ==##++  %%%%%%%%  +++###+++%%%%%%%%%",
"%%%%++##%++@@@+**%%%%       ==##    %%%%%%%%   +++####%%%%%%%%%%%%%%++##%++@@@+**%%%%       ==##    %%%%%%%%   +++####%%%%%%%%%%",
"%%%%++##%%%+@@++**%%%%%     ==##    %%%%%%%%%    +@@##%%%%%%%%%%%%%%++##%%%+@@++**%%%%%     ==##    %%%%%%%%%    +@@##%%%%%%%%%%",
"%%%%++   %%%@@++==%%%%%     ==##    %%%%%%%%%     @@@@%%%%%%%%%%%%%%++   %%%@@++==%%%%%     ==##    %%%%%%%%%     @@@@%%%%%%%%%%",
"%%%%++   %%%@@@++==%%%%%   ===#     %%%%%%%%%%%   @@@@%%%%%%%%%%%%%%++   %%%@@@++==%%%%%   ===#     %%%%%%%%%%%   @@@@%%%%%%%%%%",
"%%%+++    %%#@@++==%%%%%=====+      %%%%%%%%%%%%++@@@@%%%%%% %%%%%%+++    %%#@@++==%%%%%=====+      %%%%%%%%%%%%++@@@@%%%%%% %%%",
"%%%+++    %%##@@@++=%%%%====++       %%%%%%%%%%%+@@@@@%%%%%   %%%%%+++    %%##@@@++=%%%%====++       %%%%%%%%%%%+@@@@@%%%%%   %%",
"%%+++      %++@@@@++****++@@++*      %%%%%%%%%%*@@@@@+        %%%%+++      %++@@@@++****++@@++*      %%%%%%%%%%*@@@@@+        %%",
"%%+++      %++@@@@@++**++@@@@+**       %%%%%%***@@@+++        %%%%+++      %++@@@@@++**++@@@@+**       %%%%%%***@@@+++        %%",
"%%++         +%%+@@@+++++@@@@@**%      %%%%%%**#@@+++%        %%%%++         +%%+@@@+++++@@@@@**%      %%%%%%**#@@+++%        %%",
"%%++         +%%%+@@+++@@@@@@@**%%%      %%%**##@++%%%        %%%%++         +%%%+@@+++@@@@@@@**%%%      %%%**##@++%%%        %%",
"++++          %%%+++##@@@@@@@+**%%%         **++++%%%%%       %%++++          %%%+++##@@@@@@@+**%%%         **++++%%%%%       %%",
"++++           %%%%+##@@@@@+++**%%%%%       **++++%%%%%%      %%++++           %%%%+##@@@@@+++**%%%%%       **++++%%%%%%      %%",
"+++++          %%%%+++@@@+++++**%%%%%       ==++##%%%%%%%%   ++++++++          %%%%+++@@@+++++**%%%%%       ==++##%%%%%%%%   +++",
"+++++            %%%++@@++++++*%%%%%%%      ==++##++%%%%%%%  ++++++++            %%%++@@++++++*%%%%%%%      ==++##++%%%%%%%  +++",
"+++#++           %%%**##++++==%%%%%%%%      ==++@@+++%%%%%%++++++++#++           %%%**##++++==%%%%%%%%      ==++@@+++%%%%%%+++++",
"++##++             %**#+#+++==%%%%%%%%%    ==+++@@@+++%%%%%+++++++##++             %**#+#+++==%%%%%%%%%    ==+++@@@+++%%%%%+++++",
"####++*             **+###++++*%%%%%%%%    ==+++@@@##++%%%++#+++####++*             **+###++++*%%%%%%%%    ==+++@@@##++%%%++#+++",
"####++**            **++##+++++**%%%%%%%  =+++++@@@##++%%%++##++####++**            **++##+++++**%%%%%%%  =+++++@@@##++%%%++##++",
"@@@@++**            **++@@@@+++**%%%%%%%**++++##@@##++++++++@@@@@@@@++**            **++@@@@+++**%%%%%%%**++++##@@##++++++++@@@@",
"@@@@++**             **++@@@++++***%%%%**+++++##@@++++++++++@@@@@@@@++**             **++@@@++++***%%%%**+++++##@@++++++++++@@@@",
"@@@@++**%%           **+++++##++#**%%%%**+++++++@@+++%%%++++#@@@@@@@++**%%           **+++++##++#**%%%%**+++++++@@+++%%%++++#@@@",
"@@@@++**%%%           ***+++##++##**%%*+++++++++@@+++%%%+++++@@@@@@@++**%%%           ***+++##++##**%%*+++++++++@@+++%%%+++++@@@",
"@@@@++**%%%%          %**+++@@@@@@+****++++   ==@@++%%%%%+++++++@@@@++**%%%%          %**+++@@@@@@+****++++   ==@@++%%%%%+++++++",
"@@@@++**%%%%%%         %**++@@@@@@++**++++   ===@@%%%%%%%%++++++@@@@++**%%%%%%         %**++@@@@@@++**++++   ===@@%%%%%%%%++++++",
"####++**%%%%%%%         **++#@@@@@+++++++%%%====@@%%%%%%%%%+++++####++**%%%%%%%         **++#@@@@@+++++++%%%====@@%%%%%%%%%+++++",
"####++**%%%%%%%%%       ***++#@@@+++++++%%%%====@@%%%%%%%%%+++++####++**%%%%%%%%%       ***++#@@@+++++++%%%%====@@%%%%%%%%%+++++",
"++##++**%%%%%%%%%       %**+++@@@+##+++*%%%%**++@@ %%%%%%%%% +++++##++**%%%%%%%%%       %**+++@@@+##+++*%%%%**++@@ %%%%%%%%% +++",
"+++#++**%%%%%%%%%%%      %**++@@+###++***%%***++@@ %%%%%%%%%   ++++#++**%%%%%%%%%%%      %**++@@+###++***%%***++@@ %%%%%%%%%   +",
"+++++++..%%%%%%%%%%       ==++@@###+++********++##++%%%%%%%%%   +++++++..%%%%%%%%%%       ==++@@###+++********++##++%%%%%%%%%   ",
"+++++++..%%%%%%%%%%%%    ===+@@###++++********+###++%%%%%%%%%%% +++++++..%%%%%%%%%%%%    ===+@@###++++********+###++%%%%%%%%%%% ",
"++###+++..%%%%%%%%%%%    ==#@@@##++++############+   %%%%%%%%%%%++###+++..%%%%%%%%%%%    ==#@@@##++++############+   %%%%%%%%%%%",
"+####++++...%%%%%%%%%%  =##@@@#+++++############+     %%%%%%%%%%+####++++...%%%%%%%%%%  =##@@@#+++++############+     %%%%%%%%%%",
"###@@#++++....$$$%%%%%**##@@@##++%%%%%%###++++++       %%%%%%%%%###@@#++++....$$$%%%%%**##@@@##++%%%%%%###++++++       %%%%%%%%%",
"##@@@##+++....$$$$$%%%**#@@@#+++%%%%%%%%##++++++        %%%%%%%%##@@@##+++....$$$$$%%%**#@@@#+++%%%%%%%%##++++++        %%%%%%%%",
"++@@@@##++##@@+++$$$$$++@@@@+++ %%%%%%%%$##+++++++%%     %%%%%%%++@@@@##++##@@+++$$$$$++@@@@+++ %%%%%%%%$##+++++++%%     %%%%%%%",
"++@@@@@##+##@@++++$$$$+++@@++    %%%%%%%%$$##+++++%%%     %%%%%%++@@@@@##+##@@++++$$$$+++@@++    %%%%%%%%$$##+++++%%%     %%%%%%",
"+++#@@@@###@@@##########+++++     %%%%%%%%$####+++ %%%     %%%%%+++#@@@@###@@@##########+++++     %%%%%%%%$####+++ %%%     %%%%%",
"++++@@@@@#@@@###########++++       %%%%%%$$$####++  %%%      %%%++++@@@@@#@@@###########++++       %%%%%%$$$####++  %%%      %%%",
"+++++@@@@@@@@##+++++++%%%%%%%%      %%%%$$++++##++   %%%        +++++@@@@@@@@##+++++++%%%%%%%%      %%%%$$++++##++   %%%        ",
"++++++@@@@@@##++++++++%%%%%%%%        %%+++++###++    %%%       ++++++@@@@@@##++++++++%%%%%%%%        %%+++++###++    %%%       ",
"..+++++#@@@+%%%%%%    %%%%%%%%%       ..++++####$$%    %%%      ..+++++#@@@+%%%%%%    %%%%%%%%%       ..++++####$$%    %%%      ",
"..++++++@++%%%%%%%    %%%%%%%%%%      ..++++####$$$%    %%%     ..++++++@++%%%%%%%    %%%%%%%%%%      ..++++####$$$%    %%%     ",
"...+@@@++++%%%%%%%     %%%%%%%%%%%%%  ..#+++##+++$$$     %%%    ...+@@@++++%%%%%%%     %%%%%%%%%%%%%  ..#+++##+++$$$     %%%    ",
"....@@@@++%%%%%%%      %%%%%%%%%%%%%%%..######++++$$      %%%   ....@@@@++%%%%%%%      %%%%%%%%%%%%%%%..######++++$$      %%%   ",
"  ..@@@@$$$%%%%%        %%%%%%%%%%%%%%.#####@@#+++$$%      %%%%%  ..@@@@$$$%%%%%        %%%%%%%%%%%%%%.#####@@#+++$$%      %%%%%",
"  ..@@@@$$$%%%%%%        %%%%%%%%%%%%%######@@##++$$%%%     %%%%  ..@@@@$$$%%%%%%        %%%%%%%%%%%%%######@@##++$$%%%     %%%%",
"%%%.++@@++$$%%%%%%        %%%%%%%%%%$$##++##@@##++$$%%%         %%%.++@@++$$%%%%%%        %%%%%%%%%%$$##++##@@##++$$%%%         ",
"%%%%++@@+++$$$%%%%         %%%%%%%%$$$######@@##+++$$%%%%       %%%%++@@+++$$$%%%%         %%%%%%%%$$$######@@##+++$$%%%%       ",
"  %%$$@@##++$$$$%%          %%%%%%$$++######@@##+++$$%%%%%%       %%$$@@##++$$$$%%          %%%%%%$$++######@@##+++$$%%%%%%     ",
"  %%$$@@##++$$$$%%          %%%%%%$$++######@@##++++$$%%%%%%      %%$$@@##++$$$$%%          %%%%%%$$++######@@##++++$$%%%%%%    "};
