/* XPM */
static char * stone_xpm[] = {
"128 128 5 1",
" 	c #090707",
".	c #000000",
"+	c #151F1F",
"@	c #37514A",
"#	c #202F2B",
"  ....++++++++++++++  ....                  ......                ....++++++++++++++  ....                  ......              ",
"  ....++++++++++++++  .....                .......                ....++++++++++++++  .....                .......              ",
"  ....++++++++++++++  ++......................@@@@   +..........  ....++++++++++++++  ++......................@@@@   +..........",
"  ..@@@+++++++++++@@  ++++..................+@@@@@  ++..........  ..@@@+++++++++++@@  ++++..................+@@@@@  ++..........",
"  @@@@@@@@@@@@@@@@@@  +++++++++++++++++++++++@@@@@  ++++.......+  @@@@@@@@@@@@@@@@@@  +++++++++++++++++++++++@@@@@  ++++.......+",
"  @@@@@@@@@@@@@@@@@@  @@++++++++++++++++++++@@@@@@  ++++++...+++  @@@@@@@@@@@@@@@@@@  @@++++++++++++++++++++@@@@@@  ++++++...+++",
"  #@@@@@@@@#@@@@##    @@@@@@++++++++@@@@@@@@@@@@@@  @@+++++++++@  #@@@@@@@@#@@@@##    @@@@@@++++++++@@@@@@@@@@@@@@  @@+++++++++@",
"  ###@@@@@##@@@###   @@@@@@@@@++++@@@@@@@@@@@@@@##  @@@@++++++@@  ###@@@@@##@@@###   @@@@@@@@@++++@@@@@@@@@@@@@@##  @@@@++++++@@",
"  ###############   @@@@@@@@@@@@@@@@@@@@@@@@@@####  @@@@@@@@##    ###############   @@@@@@@@@@@@@@@@@@@@@@@@@@####  @@@@@@@@##  ",
"  ##############  @@@@@@@@@@@@@@@@@@@@@@@@@@#####  @@@@@@@@##     ##############  @@@@@@@@@@@@@@@@@@@@@@@@@@#####  @@@@@@@@##   ",
"  ##########     @@@@@@@@@@@@@@@@@##@@@@@@#######  @@@@######  .  ##########     @@@@@@@@@@@@@@@@@##@@@@@@#######  @@@@######  .",
"   #######       @@@@@@@@@@@@@@@#####@@@########  @@@######   ..   #######       @@@@@@@@@@@@@@@#####@@@########  @@@######   ..",
".          .   .@@@@@@@@##############           @@@@######   ...          .   .@@@@@@@@##############           @@@@######   ..",
"...       ..  ..@@##@@@##############           @@@######    ......       ..  ..@@##@@@##############           @@@######    ...",
"............. .   ###################   ########@@#####    ....+............. .   ###################   ########@@#####    ....+",
"...............    ################     ########@@###     ...+++...............    ################     ########@@###     ...+++",
"+++++++++++++++++    ##########      ..  ##########   .   ..+++#+++++++++++++++++    ##########      ..  ##########   .   ..+++#",
"+++++++++++++++++++    ######      ......  ######    ...  ..++##+++++++++++++++++++    ######      ......  ######    ...  ..++##",
"@@@@@@@@@@@@@++++++            ..........          ....+  @@@@@@@@@@@@@@@@@@@++++++            ..........          ....+  @@@@@@",
"@@@@@@@@@@@@@@@+++++         .............        ...+++  @@@@@@@@@@@@@@@@@@@@@+++++         .............        ...+++  @@@@@@",
"@@@@@@@@@@@@@@@+++++   ..........++++++++++++++++++++++@  @@@@@@@@@@@@@@@@@@@@@+++++   ..........++++++++++++++++++++++@  @@@@@@",
"@@@@@@@@@@@@@@@@@+++  .........++++++++++++++++++++++@@@  @@@@@@@@@@@@@@@@@@@@@@@+++  .........++++++++++++++++++++++@@@  @@@@@@",
"#######@@@@@@#@@@@@@  +++++++++++@@@@@@++++++++++++@@@@   @@#@@@#######@@@@@@#@@@@@@  +++++++++++@@@@@@++++++++++++@@@@   @@#@@@",
"#########@@@###@@@@@  +++++++++@@@@@@@@@@++++++++@@@@@@   @###@@#########@@@###@@@@@  +++++++++@@@@@@@@@@++++++++@@@@@@   @###@@",
"###############@@@@#  @@@@@@@@@@@@@@@@@@@@@@@@@@@@@@@     #####################@@@@#  @@@@@@@@@@@@@@@@@@@@@@@@@@@@@@@     ######",
"################@@#    @@@@@@@@@@@@@@@@@@@@@@@@@@@@       ######################@@#    @@@@@@@@@@@@@@@@@@@@@@@@@@@@       ######",
"################### .. @@@@@@@@@@@@@@@@@@@@@@@##@@   ...   ######################## .. @@@@@@@@@@@@@@@@@@@@@@@##@@   ...   #####",
"#################  ...  @@@@@@@@@@@@@@@@@@@@@###@  .......  #####################  ...  @@@@@@@@@@@@@@@@@@@@@###@  .......  ####",
"#################  ...  @@##@@@@@@@@@@@@@@@@@###  .........     #################  ...  @@##@@@@@@@@@@@@@@@@@###  .........     ",
"###############  ......  @###@@@@@@@@@@@@@@##### ...........    ###############  ......  @###@@@@@@@@@@@@@@##### ...........    ",
"                 ......   ###@@@##@@@@##@@@#####.....+++++......                 ......   ###@@@##@@@@##@@@#####.....+++++......",
"               ..........  ###@@###@@###@@######...+++++++++....               ..........  ###@@###@@###@@######...+++++++++....",
"....   ............++....    ################   ..++++@@#+++++++....   ............++....    ################   ..++++@@#+++++++",
"....   ..........++++++....    ############    ..++++@@@@+++++++....   ..........++++++....    ############    ..++++@@@@+++++++",
"++   +++++++++++++++@@+......    ##########  ....+++@@@@@@@+++++++   +++++++++++++++@@+......    ##########  ....+++@@@@@@@+++++",
"++   ++++++++++++++@@@@++......    ######   ...+++@@@@@@@@@@@+++++   ++++++++++++++@@@@++......    ######   ...+++@@@@@@@@@@@+++",
"##  @@@@@@@@@@@@@@@@@@@++++.......   ####   +++++@@@@@@@@@@@@#####  @@@@@@@@@@@@@@@@@@@++++.......   ####   +++++@@@@@@@@@@@@###",
"##  @@@@@@@@@@@@@@@@@@@@@++++......   ##    +++@@@@@@@@@@@@@@#####  @@@@@@@@@@@@@@@@@@@@@++++......   ##    +++@@@@@@@@@@@@@@###",
"##  @@@@@@##@@##@@@@@@@@@@@++...   ..   ..  +++@@@@@@###@@@@######  @@@@@@##@@##@@@@@@@@@@@++...   ..   ..  +++@@@@@@###@@@@####",
"##  @@@@@####@###@@@@@@@@@@@@+.   ....  ...  +@@@@@@#####@########  @@@@@####@###@@@@@@@@@@@@+.   ....  ...  +@@@@@@#####@######",
"##   @@############@@@##@@@@@@   ..........   #@@@################   @@############@@@##@@@@@@   ..........   #@@@##############",
"##    @#############@@###@@@@   .............  #@@################    @#############@@###@@@@   .............  #@@##############",
"##     #####################   ..............   ++################     #####################   ..............   ++##############",
"#      ####################  ..................  +###############      ####################  ..................  +##############",
"   ...  ###################  ......++++++++....                    ...  ###################  ......++++++++....                 ",
" ......   ###############  ......++++++++++++....                ......   ###############  ......++++++++++++....               ",
"........         ########  ......++++++@@++++........   ................         ########  ......++++++@@++++........   ........",
"..........         ####  .......+++++@@@@@@+++.......   ..................         ####  .......+++++@@@@@@+++.......   ........",
"++++++++......  ..      .......#@@@@@@@@@@@@@@@@@@#..  +++++++++++++++++......  ..      .......#@@@@@@@@@@@@@@@@@@#..  +++++++++",
"+++++++++.....  ...    .......###@@@@@@@@@@@@@@@@##.   ++++++++++++++++++.....  ...    .......###@@@@@@@@@@@@@@@@##.   +++++++++",
"@@@@@@@@++....  ++.....       ####@@@###@@##@@@@###   ++++@@@@@@@@@@@@@@++....  ++.....       ####@@@###@@##@@@@###   ++++@@@@@@",
"@@@@@@@@++...   ++++.....     #####################  +++++@@@@@@@@@@@@@@++...   ++++.....     #####################  +++++@@@@@@",
"@@@@@@@#####   @@@++++++........  ################  +++++@@@@@@@@@@@@@@#####   @@@++++++........  ################  +++++@@@@@@@",
"@@@@@######   @@@@@@++++++.......   #############  ++++++@@@@@@@@@@@@######   @@@@@@++++++.......   #############  ++++++@@@@@@@",
"###########    @@@@@@@++++++++....         #####  ++++++@@@###@@###########    @@@@@@@++++++++....         #####  ++++++@@@###@@",
"#########    @  @@@@@@@@++++++++....        ##    +++++@@@@####@#########    @  @@@@@@@@++++++++....        ##    +++++@@@@####@",
"###+++##   @@@   @@@@@@@@@@@++++++............    ++++@@@@#########+++##   @@@   @@@@@@@@@@@++++++............    ++++@@@@######",
"#+++++#   @@@@    @@@@@@@@@@@@++++++............   +@@@@@########+++++#   @@@@    @@@@@@@@@@@@++++++............   +@@@@@#######",
"++++++   ###@@##    @@@@@@@@@@@@++++++++++++.....   @@@@########++++++   ###@@##    @@@@@@@@@@@@++++++++++++.....   @@@@########",
"+++++   ####@@##      @@@@@@@@@@@@++++++++++++....  @@##########+++++   ####@@##      @@@@@@@@@@@@++++++++++++....  @@##########",
"+++++  .............   +++@@@@@@@@@@@@@@@@+++++++   ++########+++++++  .............   +++@@@@@@@@@@@@@@@@+++++++   ++########++",
"+++  ...............    ++++@@@@@@@@@@@@@+++++++    +++######++++++  ...............    ++++@@@@@@@@@@@@@+++++++    +++######+++",
"     ...............      ++++++++++++++++++        +++++###++++     ...............      ++++++++++++++++++        +++++###++++",
"    ................      ++++++++++++++++++        ++++++##++++    ................      ++++++++++++++++++        ++++++##++++",
"  ....++++++++++++++  ....                  ......                ....++++++++++++++  ....                  ......              ",
"  ....++++++++++++++  .....                .......                ....++++++++++++++  .....                .......              ",
"  ....++++++++++++++  ++......................@@@@   +..........  ....++++++++++++++  ++......................@@@@   +..........",
"  ..@@@+++++++++++@@  ++++..................+@@@@@  ++..........  ..@@@+++++++++++@@  ++++..................+@@@@@  ++..........",
"  @@@@@@@@@@@@@@@@@@  +++++++++++++++++++++++@@@@@  ++++.......+  @@@@@@@@@@@@@@@@@@  +++++++++++++++++++++++@@@@@  ++++.......+",
"  @@@@@@@@@@@@@@@@@@  @@++++++++++++++++++++@@@@@@  ++++++...+++  @@@@@@@@@@@@@@@@@@  @@++++++++++++++++++++@@@@@@  ++++++...+++",
"  #@@@@@@@@#@@@@##    @@@@@@++++++++@@@@@@@@@@@@@@  @@+++++++++@  #@@@@@@@@#@@@@##    @@@@@@++++++++@@@@@@@@@@@@@@  @@+++++++++@",
"  ###@@@@@##@@@###   @@@@@@@@@++++@@@@@@@@@@@@@@##  @@@@++++++@@  ###@@@@@##@@@###   @@@@@@@@@++++@@@@@@@@@@@@@@##  @@@@++++++@@",
"  ###############   @@@@@@@@@@@@@@@@@@@@@@@@@@####  @@@@@@@@##    ###############   @@@@@@@@@@@@@@@@@@@@@@@@@@####  @@@@@@@@##  ",
"  ##############  @@@@@@@@@@@@@@@@@@@@@@@@@@#####  @@@@@@@@##     ##############  @@@@@@@@@@@@@@@@@@@@@@@@@@#####  @@@@@@@@##   ",
"  ##########     @@@@@@@@@@@@@@@@@##@@@@@@#######  @@@@######  .  ##########     @@@@@@@@@@@@@@@@@##@@@@@@#######  @@@@######  .",
"   #######       @@@@@@@@@@@@@@@#####@@@########  @@@######   ..   #######       @@@@@@@@@@@@@@@#####@@@########  @@@######   ..",
".          .   .@@@@@@@@##############           @@@@######   ...          .   .@@@@@@@@##############           @@@@######   ..",
"...       ..  ..@@##@@@##############           @@@######    ......       ..  ..@@##@@@##############           @@@######    ...",
"............. .   ###################   ########@@#####    ....+............. .   ###################   ########@@#####    ....+",
"...............    ################     ########@@###     ...+++...............    ################     ########@@###     ...+++",
"+++++++++++++++++    ##########      ..  ##########   .   ..+++#+++++++++++++++++    ##########      ..  ##########   .   ..+++#",
"+++++++++++++++++++    ######      ......  ######    ...  ..++##+++++++++++++++++++    ######      ......  ######    ...  ..++##",
"@@@@@@@@@@@@@++++++            ..........          ....+  @@@@@@@@@@@@@@@@@@@++++++            ..........          ....+  @@@@@@",
"@@@@@@@@@@@@@@@+++++         .............        ...+++  @@@@@@@@@@@@@@@@@@@@@+++++         .............        ...+++  @@@@@@",
"@@@@@@@@@@@@@@@+++++   ..........++++++++++++++++++++++@  @@@@@@@@@@@@@@@@@@@@@+++++   ..........++++++++++++++++++++++@  @@@@@@",
"@@@@@@@@@@@@@@@@@+++  .........++++++++++++++++++++++@@@  @@@@@@@@@@@@@@@@@@@@@@@+++  .........++++++++++++++++++++++@@@  @@@@@@",
"#######@@@@@@#@@@@@@  +++++++++++@@@@@@++++++++++++@@@@   @@#@@@#######@@@@@@#@@@@@@  +++++++++++@@@@@@++++++++++++@@@@   @@#@@@",
"#########@@@###@@@@@  +++++++++@@@@@@@@@@++++++++@@@@@@   @###@@#########@@@###@@@@@  +++++++++@@@@@@@@@@++++++++@@@@@@   @###@@",
"###############@@@@#  @@@@@@@@@@@@@@@@@@@@@@@@@@@@@@@     #####################@@@@#  @@@@@@@@@@@@@@@@@@@@@@@@@@@@@@@     ######",
"################@@#    @@@@@@@@@@@@@@@@@@@@@@@@@@@@       ######################@@#    @@@@@@@@@@@@@@@@@@@@@@@@@@@@       ######",
"################### .. @@@@@@@@@@@@@@@@@@@@@@@##@@   ...   ######################## .. @@@@@@@@@@@@@@@@@@@@@@@##@@   ...   #####",
"#################  ...  @@@@@@@@@@@@@@@@@@@@@###@  .......  #####################  ...  @@@@@@@@@@@@@@@@@@@@@###@  .......  ####",
"#################  ...  @@##@@@@@@@@@@@@@@@@@###  .........     #################  ...  @@##@@@@@@@@@@@@@@@@@###  .........     ",
"###############  ......  @###@@@@@@@@@@@@@@##### ...........    ###############  ......  @###@@@@@@@@@@@@@@##### ...........    ",
"                 ......   ###@@@##@@@@##@@@#####.....+++++......                 ......   ###@@@##@@@@##@@@#####.....+++++......",
"               ..........  ###@@###@@###@@######...+++++++++....               ..........  ###@@###@@###@@######...+++++++++....",
"....   ............++....    ################   ..++++@@#+++++++....   ............++....    ################   ..++++@@#+++++++",
"....   ..........++++++....    ############    ..++++@@@@+++++++....   ..........++++++....    ############    ..++++@@@@+++++++",
"++   +++++++++++++++@@+......    ##########  ....+++@@@@@@@+++++++   +++++++++++++++@@+......    ##########  ....+++@@@@@@@+++++",
"++   ++++++++++++++@@@@++......    ######   ...+++@@@@@@@@@@@+++++   ++++++++++++++@@@@++......    ######   ...+++@@@@@@@@@@@+++",
"##  @@@@@@@@@@@@@@@@@@@++++.......   ####   +++++@@@@@@@@@@@@#####  @@@@@@@@@@@@@@@@@@@++++.......   ####   +++++@@@@@@@@@@@@###",
"##  @@@@@@@@@@@@@@@@@@@@@++++......   ##    +++@@@@@@@@@@@@@@#####  @@@@@@@@@@@@@@@@@@@@@++++......   ##    +++@@@@@@@@@@@@@@###",
"##  @@@@@@##@@##@@@@@@@@@@@++...   ..   ..  +++@@@@@@###@@@@######  @@@@@@##@@##@@@@@@@@@@@++...   ..   ..  +++@@@@@@###@@@@####",
"##  @@@@@####@###@@@@@@@@@@@@+.   ....  ...  +@@@@@@#####@########  @@@@@####@###@@@@@@@@@@@@+.   ....  ...  +@@@@@@#####@######",
"##   @@############@@@##@@@@@@   ..........   #@@@################   @@############@@@##@@@@@@   ..........   #@@@##############",
"##    @#############@@###@@@@   .............  #@@################    @#############@@###@@@@   .............  #@@##############",
"##     #####################   ..............   ++################     #####################   ..............   ++##############",
"#      ####################  ..................  +###############      ####################  ..................  +##############",
"   ...  ###################  ......++++++++....                    ...  ###################  ......++++++++....                 ",
" ......   ###############  ......++++++++++++....                ......   ###############  ......++++++++++++....               ",
"........         ########  ......++++++@@++++........   ................         ########  ......++++++@@++++........   ........",
"..........         ####  .......+++++@@@@@@+++.......   ..................         ####  .......+++++@@@@@@+++.......   ........",
"++++++++......  ..      .......#@@@@@@@@@@@@@@@@@@#..  +++++++++++++++++......  ..      .......#@@@@@@@@@@@@@@@@@@#..  +++++++++",
"+++++++++.....  ...    .......###@@@@@@@@@@@@@@@@##.   ++++++++++++++++++.....  ...    .......###@@@@@@@@@@@@@@@@##.   +++++++++",
"@@@@@@@@++....  ++.....       ####@@@###@@##@@@@###   ++++@@@@@@@@@@@@@@++....  ++.....       ####@@@###@@##@@@@###   ++++@@@@@@",
"@@@@@@@@++...   ++++.....     #####################  +++++@@@@@@@@@@@@@@++...   ++++.....     #####################  +++++@@@@@@",
"@@@@@@@#####   @@@++++++........  ################  +++++@@@@@@@@@@@@@@#####   @@@++++++........  ################  +++++@@@@@@@",
"@@@@@######   @@@@@@++++++.......   #############  ++++++@@@@@@@@@@@@######   @@@@@@++++++.......   #############  ++++++@@@@@@@",
"###########    @@@@@@@++++++++....         #####  ++++++@@@###@@###########    @@@@@@@++++++++....         #####  ++++++@@@###@@",
"#########    @  @@@@@@@@++++++++....        ##    +++++@@@@####@#########    @  @@@@@@@@++++++++....        ##    +++++@@@@####@",
"###+++##   @@@   @@@@@@@@@@@++++++............    ++++@@@@#########+++##   @@@   @@@@@@@@@@@++++++............    ++++@@@@######",
"#+++++#   @@@@    @@@@@@@@@@@@++++++............   +@@@@@########+++++#   @@@@    @@@@@@@@@@@@++++++............   +@@@@@#######",
"++++++   ###@@##    @@@@@@@@@@@@++++++++++++.....   @@@@########++++++   ###@@##    @@@@@@@@@@@@++++++++++++.....   @@@@########",
"+++++   ####@@##      @@@@@@@@@@@@++++++++++++....  @@##########+++++   ####@@##      @@@@@@@@@@@@++++++++++++....  @@##########",
"+++++  .............   +++@@@@@@@@@@@@@@@@+++++++   ++########+++++++  .............   +++@@@@@@@@@@@@@@@@+++++++   ++########++",
"+++  ...............    ++++@@@@@@@@@@@@@+++++++    +++######++++++  ...............    ++++@@@@@@@@@@@@@+++++++    +++######+++",
"     ...............      ++++++++++++++++++        +++++###++++     ...............      ++++++++++++++++++        +++++###++++",
"    ................      ++++++++++++++++++        ++++++##++++    ................      ++++++++++++++++++        ++++++##++++"};
