/* XPM */
static char * water_xpm[] = {
"128 128 5 1",
" 	c #9BF5FF",
".	c #03CEFF",
"+	c #47E4FF",
"@	c #FFFFFF",
"#	c #00BAF7",
"  ..                                  ++++++++  ++  ++....  .                                                                   ",
"  ..    ..                            ++++++++  ++  ++....  ...  ..                                  ++++++++  ++  ++....  .    ",
"       ...######                 +########++++++++    ....  ...  ..    ..                            ++++++++  ++  ++....  ...  ",
"      ..##########             ++###########++++++.    ...  ..        ...######                 +########++++++++    ....  ...  ",
"     ..############         ##..#############+++++++++  ...          ..##########             ++###########++++++.    ...  ..   ",
"    ..##############      ++##..##############+++++++### ...        ..############         ##..#############+++++++++  ...      ",
"   ..################    ++############################## ...      ..##############      ++##..##############+++++++### ...     ",
"   .##################  +++############################### ...    ..################    ++############################## ...    ",
"  ...#################    #################################       .##################  +++############################### ...   ",
"  .....#############..     #################################     ...#################    #################################      ",
"  .....############..      ###################################+  .....#############..     #################################     ",
"  .......#########..   +..  ##################################+  .....############..      ###################################+++",
"  .................   ####  ##################################+  .......#########..   +..  ##################################+++",
"  ................    #####  .###############################++  .................   ####  ##################################+++",
"###########......    ######   ##############################+++  ................    #####  .###############################++++",
"#############...   #########   ############################+++ ###########......    ######   ##############################+++ .",
"##############..   ########..  ####++++###################++++ #############...   #########   ############################+++  .",
"##############.   #######......  #+++++++################+++++ ##############..   ########..  ####++++###################++++  .",
"##############.   .###   ......     ...++++#############++.++  ##############.   #######......  #+++++++################+++++  .",
"############..      #       .....  . ...+++++##########+++.+  +##############.   .###   ......     ...++++#############++.++   .",
".....######...         .                   +++++++++++++++++   ############..      #       .....  . ...+++++##########+++.+  + .",
"......#####.++   +.   ....                   ++++++++++++++   +.....######...         .                   +++++++++++++++++   ++",
".......   ++    ++############+++   ++++++#                  .+......#####.++   +.   ....                   ++++++++++++++   +++",
".......   +    .+##############++++++++++####              ...+.......   ++    ++############+++   ++++++#                  .+++",
".....#..++   ..#######################..######++..     .......+.......   +    .+##############++++++++++####              ...+++",
"....###.+   +.########################..#######++..   ........+.....#..++   ..#######################..######++..     .......+++",
"#########  +###################################++...  .....####....###.+   +.########################..#######++..   ........+++",
"#########  +#####################################+..  ...###############  +###################################++...  .....######",
"#########   #####################################+++  +#################  +#####################################+..  ...########",
"##########  ######################################++  +#################   #####################################+++  +##########",
"##########  +#####################################++  ###################  ######################################++  +##########",
"#########.   .####################################++  ###################  +#####################################++  ###########",
"#########.+     ###################################   ##################.   .####################################++  ###########",
"##########++        ###############################   ##################.+     ###################################   ###########",
"##############.               .....###############  ++###################++        ###############################   ###########",
"###############..+             .....##############  ++#######################.               .....###############  ++###########",
"################......++    ++  ++  +############+  ..########################..+             .....##############  ++###########",
"################......++++ +++  ++   +#########+++  ..#########################......++    ++  ++  +############+  ..###########",
"###############.......   ++++####++ + ...######++.  ..#########################......++++ +++  ++   +#########+++  ..###########",
"##############.......   +++########+   ...####++..   .########################.......   ++++####++ + ...######++.  ..###########",
"#########++++++        +++###########           ...    ###.##################.......   +++########+   ...####++..   .###########",
"#######++++++ ++     +++++#############        .....     #..############++++++        +++###########           ...    ###.######",
"++++++++++   + +++++++..+++#############...............   +++  #######++++++ ++     +++++#############        .....     #..#####",
"+++++++++     ++++++++..+++++##########.................   +   ++++++++++   + +++++++..+++#############...............   +++    ",
"         +  #############++++++++######.++.....++++++++..      +++++++++     ++++++++..+++++##########.................   +     ",
"           ################++++++++##..++++..++++++++++....             +  #############++++++++######.++.....++++++++..        ",
"       +########################.+++..++...++++++.#######....             ################++++++++##..++++..++++++++++....      ",
"      +##########################.++..++..++++++.##########..         +########################.+++..++...++++++.#######....    ",
"     ++###########################+++.+..###################++       +##########################.++..++..++++++.##########..    ",
"     ++############################+++.#####################+++     ++###########################+++.+..###################++   ",
"    ++++###########################  +#######################++     ++############################+++.#####################+++  ",
"    ++++##########################   ##########################    ++++###########################  +#######################++++",
"++  +++++#########################  ###########################    ++++##########################   ##########################++",
"++  +++++#########################  ###########################++  +++++#########################  ############################+",
"++   .++++###+++################+   ++#########################++  +++++#########################  #############################",
"++    ++++##++++################   ++##########################++   .++++###+++################+   ++###########################",
"++                 + ++++ +       ++###########################++    ++++##++++################   ++############################",
"++                ++  ++  ++     +++###########################++                 + ++++ +       ++#############################",
"++   +############# +    + +####++++++####++++################+++                ++  ++  ++     +++############################+",
"+   +###############      ########+++++++++++++##############++++   +############# +    + +####++++++####++++################+++",
"   ++############################.#++++++      ###++  +#####++ +   +###############      ########+++++++++++++##############+++.",
"  ++############################..##++                   ###      ++############################.#++++++      ###++  +#####++  .",
"......#####          ##########.     #                           ++############################..##++                   ###    .",
"......                                                         ......#####          ##########.     #                         ..",
"  ..                                  ++++++++  ++  ++....  .  .  ..                                  ++++++++  ++  ++....  .   ",
"  ..    ..                            ++++++++  ++  ++....  ...   ..    ..                            ++++++++  ++  ++....  ... ",
"       ...######                 +########++++++++    ....  ...        ...######                 +########++++++++    ....  ... ",
"      ..##########             ++###########++++++.    ...  ..        ..##########             ++###########++++++.    ...  ..  ",
"     ..############         ##..#############+++++++++  ...          ..############         ##..#############+++++++++  ...     ",
"    ..##############      ++##..##############+++++++### ...        ..##############      ++##..##############+++++++### ...    ",
"   ..################    ++############################## ...      ..################    ++############################## ...   ",
"   .##################  +++############################### ...     .##################  +++############################### ...  ",
"  ...#################    #################################       ...#################    #################################     ",
"  .....#############..     #################################      .....#############..     #################################    ",
"  .....############..      ###################################++  .....############..      ###################################++",
"  .......#########..   +..  ##################################++  .......#########..   +..  ##################################++",
"  .................   ####  ##################################++  .................   ####  ##################################++",
"  ................    #####  .###############################+++  ................    #####  .###############################+++",
"###########......    ######   ##############################+++ ###########......    ######   ##############################+++ ",
"#############...   #########   ############################+++  #############...   #########   ############################+++  ",
"##############..   ########..  ####++++###################++++  ##############..   ########..  ####++++###################++++  ",
"##############.   #######......  #+++++++################+++++  ##############.   #######......  #+++++++################+++++  ",
"##############.   .###   ......     ...++++#############++.++   ##############.   .###   ......     ...++++#############++.++   ",
"############..      #       .....  . ...+++++##########+++.+  + ############..      #       .....  . ...+++++##########+++.+  + ",
".....######...         .                   +++++++++++++++++   +.....######...         .                   +++++++++++++++++   +",
"......#####.++   +.   ....                   ++++++++++++++   ++......#####.++   +.   ....                   ++++++++++++++   ++",
".......   ++    ++############+++   ++++++#                  .++.......   ++    ++############+++   ++++++#                  .++",
".......   +    .+##############++++++++++####              ...++.......   +    .+##############++++++++++####              ...++",
".....#..++   ..#######################..######++..     .......++.....#..++   ..#######################..######++..     .......++",
"....###.+   +.########################..#######++..   ........++....###.+   +.########################..#######++..   ........++",
"#########  +###################################++...  .....##############  +###################################++...  .....#####",
"#########  +#####################################+..  ...################  +#####################################+..  ...#######",
"#########   #####################################+++  +##################   #####################################+++  +#########",
"##########  ######################################++  +###################  ######################################++  +#########",
"##########  +#####################################++  ####################  +#####################################++  ##########",
"#########.   .####################################++  ###################.   .####################################++  ##########",
"#########.+     ###################################   ###################.+     ###################################   ##########",
"##########++        ###############################   ####################++        ###############################   ##########",
"##############.               .....###############  ++########################.               .....###############  ++##########",
"###############..+             .....##############  ++#########################..+             .....##############  ++##########",
"################......++    ++  ++  +############+  ..##########################......++    ++  ++  +############+  ..##########",
"################......++++ +++  ++   +#########+++  ..##########################......++++ +++  ++   +#########+++  ..##########",
"###############.......   ++++####++ + ...######++.  ..#########################.......   ++++####++ + ...######++.  ..##########",
"##############.......   +++########+   ...####++..   .########################.......   +++########+   ...####++..   .##########",
"#########++++++        +++###########           ...    ###.##############++++++        +++###########           ...    ###.#####",
"#######++++++ ++     +++++#############        .....     #..###########++++++ ++     +++++#############        .....     #..####",
"++++++++++   + +++++++..+++#############...............   +++   ++++++++++   + +++++++..+++#############...............   +++   ",
"+++++++++     ++++++++..+++++##########.................   +    +++++++++     ++++++++..+++++##########.................   +    ",
"         +  #############++++++++######.++.....++++++++..                +  #############++++++++######.++.....++++++++..       ",
"           ################++++++++##..++++..++++++++++....                ################++++++++##..++++..++++++++++....     ",
"       +########################.+++..++...++++++.#######....          +########################.+++..++...++++++.#######....   ",
"      +##########################.++..++..++++++.##########..         +##########################.++..++..++++++.##########..   ",
"     ++###########################+++.+..###################++       ++###########################+++.+..###################++  ",
"     ++############################+++.#####################+++      ++############################+++.#####################+++ ",
"    ++++###########################  +#######################+++    ++++###########################  +#######################+++",
"    ++++##########################   ##########################+    ++++##########################   ##########################+",
"++  +++++#########################  ############################++  +++++#########################  ############################",
"++  +++++#########################  ############################++  +++++#########################  ############################",
"++   .++++###+++################+   ++##########################++   .++++###+++################+   ++##########################",
"++    ++++##++++################   ++###########################++    ++++##++++################   ++###########################",
"++                 + ++++ +       ++############################++                 + ++++ +       ++############################",
"++                ++  ++  ++     +++############################++                ++  ++  ++     +++############################",
"++   +############# +    + +####++++++####++++################++++   +############# +    + +####++++++####++++################++",
"+   +###############      ########+++++++++++++##############++++   +###############      ########+++++++++++++##############+++",
"   ++############################.#++++++      ###++  +#####++     ++############################.#++++++      ###++  +#####++  ",
"  ++############################..##++                   ###      ++############################..##++                   ###    ",
"......#####          ##########.     #                         .......#####          ##########.     #                         .",
"......                                                          ......                                                          "};
